<?xml version="1.0" encoding="UTF-8"?><svg id="Layer_1" xmlns="http://www.w3.org/2000/svg" viewBox="0 0 500 500"><defs><style>.cls-1{fill:#1982c0;}</style></defs><path class="cls-1" d="M236.98,22.65h24.98c.65,.94,1.71,.9,2.66,1.15,24.84,6.58,41.32,21.93,48.7,46.67,.84,2.83,2.24,3.92,5.01,4.55,20.91,4.77,41.79,9.7,62.67,14.62,6.99,1.65,9.07,5.04,7.51,12.01-.91,4.06-1.9,8.09-2.83,12.14-1.99,8.66-1.97,8.98,6.97,8.56,6.09-.28,9.87,1.85,12.88,7.19,6.36,11.3,13.26,22.3,19.97,33.41,1.22,2.01,2.23,4.04,2.35,6.47,1.57,31.92,3.16,63.83,4.78,95.74,2.99,58.84,6.01,117.69,9.05,176.53,.06,1.23-.43,2.74,1.1,3.56,0,9.81-.07,19.63,.06,29.44,.03,2.06-.3,2.98-2.52,2.56-.8-.15-1.66-.02-2.49-.02H64.15c-3.23-.41-4.68-3.31-6.99-5v-17.98c1.55-.82,.99-2.33,1.06-3.56,1.26-22.59,2.55-45.18,3.69-67.78,3.58-70.96,7.11-141.92,10.64-212.88,.1-2.03,.47-3.95,1.53-5.71,7.47-12.39,14.94-24.78,22.39-37.19,1.87-3.12,4.49-5.03,8.19-4.6,4.15,.48,4.57-1.37,4.11-4.92-1.96-15.01-3.71-30.04-5.45-45.07-.98-8.4,1.41-11.07,9.84-12.04,26.1-3,52.19-6.13,78.3-9.15,3.09-.36,5.41-1.34,7.43-4.04,6.81-9.14,15.8-15.53,26.25-20.06,3.9-1.69,8.34-1.94,11.84-4.59Zm12.71,439.25c57.1,0,114.2-.06,171.3,.11,4.72,.01,6.28-.96,6-5.96-2.65-48.53-5.05-97.08-7.55-145.62-2.19-42.56-4.51-85.11-6.45-127.67-.23-5.08-1.57-6.24-6.52-6.23-104.21,.15-208.43,.16-312.64-.03-5.26,0-6.27,1.71-6.48,6.4-1.19,26.94-2.67,53.86-4.06,80.79-3.3,64.17-6.56,128.33-10,192.49-.25,4.64,.95,5.84,5.59,5.83,56.93-.16,113.87-.1,170.8-.1ZM148.08,160.72c5.16,0,10.32-.09,15.48,.04,2.54,.07,3.15-.74,2.51-3.19-1.56-5.95-2.91-11.95-4.35-17.93-2.26-9.36-.64-12.04,8.55-14.24,21.02-5.04,42-10.24,63.08-15.03,4.33-.99,5.13-2.79,4.58-6.79-1.73-12.52-3.29-25.07-4.56-37.65-.35-3.46-1.52-4.01-4.66-3.6-11.88,1.56-23.78,2.86-35.68,4.25-23.3,2.73-46.59,5.48-69.89,8.19-2.36,.27-4.04,.62-3.64,3.86,3.21,26.09,6.31,52.19,9.29,78.31,.34,2.98,1.38,3.96,4.32,3.84,4.98-.21,9.98-.06,14.98-.06Zm188.24,0c6.16,0,12.32-.13,18.47,.06,2.99,.09,4.36-.8,5.05-3.89,3.64-16.4,7.36-32.78,11.44-49.07,.98-3.94-.22-4.74-3.66-5.53-25.61-5.84-51.18-11.89-76.76-17.86q-8.84-2.06-10.84,6.88-1.82,8.14,6.42,6.17c9.82-2.34,12.23-.89,14.53,8.7,4.03,16.82,8.16,33.61,12.03,50.46,.74,3.23,2.1,4.29,5.36,4.16,5.98-.25,11.98-.07,17.97-.07Zm-95.93,0c17.81,0,35.62-.04,53.43,.04,3.06,.01,4.49-.23,3.49-4.06-3.41-13.2-6.46-26.49-9.56-39.77-.58-2.49-1.35-3.72-4.35-2.99-34.09,8.29-68.19,16.49-102.32,24.61-2.77,.66-3.52,1.84-2.78,4.5,1.24,4.48,2.56,8.98,3.32,13.55,.57,3.39,2.15,4.2,5.34,4.18,17.81-.13,35.62-.06,53.42-.06Zm56.1-90.89c-11.55-31.92-52.77-41.39-75.06-22.2,4.5-.5,8.6-.91,12.68-1.41,10.27-1.28,12.59,.64,13.76,11.09,1.65,14.71,3.51,29.39,5.07,44.11,.35,3.27,1.57,3.87,4.49,3.08,2.59-.7,4.26-1.59,4.87-4.67,1.71-8.64,3.85-17.19,5.89-25.76,1.83-7.68,5-9.61,12.61-7.85,4.99,1.16,9.98,2.3,15.69,3.61Zm109.62,90.89c-3.55-5.93-7.06-10.81-9.51-16.17-2.72-5.95-6.79-7.73-12.95-6.96-2.5,.31-3.93,.79-4.46,3.4-1.13,5.52-2.34,11.03-3.77,16.48-.62,2.37-.3,3.3,2.34,3.27,9.12-.09,18.23-.03,28.34-.03Zm-311.8,0c6.18,0,11.43-.03,16.68,.02,1.9,.02,2.63-.61,2.36-2.64-.78-5.9-1.38-11.83-2.07-17.74-.11-.96-.07-2.06-1.26-2.45-1.37-.45-2.21,.33-2.84,1.38-4.15,6.89-8.28,13.79-12.87,21.43Z"/></svg>