<?xml version="1.0" encoding="UTF-8"?><svg id="Layer_1" xmlns="http://www.w3.org/2000/svg" viewBox="0 0 500 500"><defs><style>.cls-1{fill:#f8fbfd;}.cls-2{fill:#1982c0;}</style></defs><path class="cls-2" d="M450.89,451.8c0,7.82-.09,15.64,.06,23.46,.04,2.08-.34,2.99-2.53,2.54-.64-.13-1.33-.02-1.99-.02-130.94,0-261.88-.02-392.81,.1-3.82,0-4.71-.93-4.56-4.63,.32-7.47,.09-14.97,.09-22.46,2.78-6.06,2.91-12.79,4.94-19.07,13.69-42.53,39.81-73.19,83.11-87.61,11.04-3.68,22.03-7.53,33.09-11.17,2.37-.78,3.95-1.95,5.05-4.3,3.82-8.13,7.78-16.19,11.9-24.18,1.19-2.32,.99-3.8-.78-5.68-5.49-5.86-10.29-12.31-13.57-19.63-1.86-4.15-4.25-5.34-8.7-5.31-16.69,.12-27.71-11.05-28.02-27.83-.03-1.66-.13-3.34,.02-4.99,.24-2.75-.56-4.42-3.26-5.87-9.28-4.99-13.98-13.02-14.09-23.58-.1-9.66-.14-19.31-.01-28.97,.21-15.3-.73-30.62,1.3-45.88,7.08-53.28,45.65-96.9,97.75-110.77,5.04-1.34,10.57-.82,15.16-3.86h31.98c1.17,1.6,3.03,1.17,4.57,1.39,14.31,2.09,27.89,6.47,40.54,13.4,37.62,20.61,60.96,52.05,68.7,94.2,5.08,27.66,2.3,55.81,2,83.73-.14,12.53-11.29,22.45-23.93,23.28-3.81,.25-7.7,.52-11.47,.07-5.15-.61-6.79,1.53-7.39,6.39-2.56,20.52-10.51,38.75-24.45,54.15-1.97,2.18-1.77,3.83-.57,6.16,3.65,7.1,7.37,14.19,10.53,21.51,1.76,4.07,4.44,6.05,8.51,7.43,15.58,5.29,31.67,9.35,46.51,16.53,34.75,16.8,56.04,45.05,67.29,81.38,2.04,6.58,3.38,13.38,5.05,20.08ZM190.03,273.97c8.26,13.75,18.58,23.87,32.37,29.86,41.62,18.07,83.93-6.46,95.46-48.78,6.45-23.66,8.04-48.21,9.71-72.62,.75-10.99,2.22-8.88-8.39-10.36-30.59-4.27-58.37-15.39-81.43-35.95-8.01-7.14-14.95-7.62-23.7-4.31-2.64,1-5.28,2.02-7.85,3.17-15.57,6.95-24.3,20.76-33.76,33.82-.96,1.33-.57,2.91-.45,4.37,1.05,13.27,1.92,26.56,3.27,39.79,1.33,13.07,3.13,26.09,5.83,38.98,.66,3.13,1.94,4.39,5.29,4.22,5.81-.29,11.66-.24,17.47-.02,2.92,.11,4.27-.99,5.61-3.56,4.29-8.23,11.2-13.08,20.53-13.96,7.3-.69,14.65-.77,21.94,0,14.89,1.56,24.75,13.08,24.19,27.86-.54,14.1-11.76,24.92-26.43,25.33-5.82,.16-11.66,.16-17.48-.02-8.28-.26-16.12-3.14-19.96-10.36-3.8-7.14-8.77-8.3-15.59-7.48-1.8,.22-3.64,.03-6.63,.03Zm43.22,185.66c0-.36,.12-.74-.02-.97-1.69-2.86-3.29-5.79-5.17-8.53-20.93-30.52-40.17-61.95-52.44-97.14-.99-2.85-2.62-2.23-4.67-1.52-10.06,3.47-20.21,6.68-30.22,10.29-43.57,15.7-65.93,48.3-73.6,92.58-.74,4.29,.07,5.89,5.02,5.87,52.09-.2,104.17-.12,156.26-.14,1.61,0,3.29,.4,4.84-.44Zm32.52,.46h6.29c49.92,0,99.84,0,149.76,0,12.18,0,12.47-.06,9.99-12.04-7.46-36.03-26.1-64.14-59.49-81.02-13.96-7.06-29.4-10.51-44.06-15.89-3.31-1.22-3.58,1.25-4.29,3.19-11.19,30.47-26.51,58.73-45.23,85.22-4.47,6.32-8.3,13.1-12.97,20.54ZM172.45,138.5c11.49-12.23,24.83-20.81,40.92-25.01,12.4-3.24,22.71-3.31,33.53,7.1,21.46,20.66,48.58,30.76,78.1,34.32,2.66,.32,3.92,0,3.92-3.15,.02-31-12.71-54.58-40.48-69.2-16.81-8.85-35.1-8.29-53.22-6.71-19.89,1.73-35.97,11.19-48.35,26.78-8.32,10.49-13.28,22.43-14.41,35.88ZM250.21,39.8c-55.27-.15-103.3,40.73-112.22,95.52-1.86,11.41-1.86,11.25,10.05,11.46,4.25,.07,5.85-.8,6.18-5.6,1.87-26.45,13.3-48.16,34.01-64.72,26.59-21.26,57.56-22.86,88.78-16.36,37.71,7.85,63.22,37.92,68.66,76.64,.45,3.2-1.23,7.69,1.6,9.3,2.68,1.52,6.83,.26,10.26,.72,5.14,.69,5.95-1.31,5.39-6.07-6.63-56.79-55.61-100.73-112.72-100.88Zm-.18,412.72c9.67-17.47,21.34-32.39,31.03-48.62,1.07-1.79,.14-2.73-.93-3.82-9.56-9.73-19.14-19.43-28.64-29.22-1.6-1.64-2.6-1.95-4.32-.07-9.09,9.94-18.29,19.79-27.5,29.61-1.21,1.29-1.43,2.29-.47,3.88,9.66,16.06,21.25,30.85,30.84,48.24Zm48.63-137.09c-12.13,13.05-23.63,25.51-35.25,37.85-1.87,1.99-1.47,3.16,.26,4.88,8.23,8.24,16.45,16.5,24.47,24.94,2.4,2.53,3.31,2.12,4.72-.79,6.24-12.88,11.9-25.99,16.63-39.5,.62-1.77,1.05-3.42,.12-5.27-3.58-7.11-7.06-14.27-10.93-22.12Zm-88.47,69.61c.12-.18,.43-.8,.88-1.29,7.91-8.53,15.8-17.08,23.8-25.52,1.73-1.82,1.29-2.95-.25-4.51-10.87-10.98-21.69-22.02-32.49-33.07-1.43-1.46-2.39-2.14-3.54,.32-2.59,5.57-5.37,11.05-8.12,16.54-.72,1.44-.8,2.82-.27,4.32,5.01,14.09,10.73,27.88,17.49,41.23,.42,.83,.54,1.99,2.49,1.97Zm-74.02-195.75c0,4.82,0,9.64,0,14.46,0,15.6,1.5,16.95,17.15,16.99,3.98,.01,5.19-1.04,4.64-5.06-1.71-12.68-2.66-25.43-3.28-38.22-.67-13.77-.83-13.66-14.75-13.22-3.14,.1-3.9,1.18-3.83,4.12,.19,6.97,.06,13.96,.06,20.94Zm227.73,.2v-11.96c0-13.84,0-13.74-14.04-13.29-3.07,.1-3.88,1.15-4.01,4.07-.65,13.94-1.51,27.86-2.93,41.75-1.14,11.17-.94,11.19,10.61,10.58,6.98-.37,10.24-3.65,10.35-10.71,.1-6.81,.02-13.62,.02-20.44Zm-122.69,84.43c2.99,0,5.99,.18,8.97-.04,4.77-.35,8.2-3.78,8.55-8.22,.34-4.24-2.79-8.57-7.42-9.19-6.58-.88-13.28-.8-19.87-.05-4.81,.54-7.7,4.51-7.5,9.06,.2,4.5,3.48,7.98,8.3,8.39,2.97,.25,5.98,.05,8.96,.06Zm-7.74,52.01c-.48,.53-.96,1.06-1.44,1.59,5.11,4.66,10.26,9.28,15.3,14.01,1.34,1.25,2.18,.95,3.25-.23,4.2-4.61,8.44-9.17,13.59-14.75-11.12,1.44-20.95,1.31-30.7-.62Zm-75.9-87.64c-2.24-.25-4.03-.05-3.77,2.96,.21,2.47-.07,4.99,.28,7.43,.59,4.04,3.15,6.44,7.14,7.22,1.72,.34,2.87,.14,2.34-2.26-.89-4.04-1.61-8.12-2.11-12.22-.31-2.57-1.49-3.49-3.89-3.13Z"/><path class="cls-1" d="M157.56,238.29c2.39-.36,3.57,.56,3.89,3.13,.5,4.1,1.22,8.19,2.11,12.22,.53,2.41-.62,2.6-2.34,2.26-3.99-.78-6.55-3.18-7.14-7.22-.35-2.44-.07-4.96-.28-7.43-.26-3.02,1.53-3.21,3.77-2.96Z"/><path class="cls-2" d="M408.03,427.44c-.19,4.59-2.05,7.49-5.92,8.88-3.95,1.42-7.29,.23-9.62-3.11-2.85-4.07-5.3-8.42-8.11-12.51-3.51-5.1-8.29-9.01-12.68-13.3-4.86-4.75-3.99-11.81,1.55-14.64,3.33-1.7,6.53-1.21,9.34,1.01,10.46,8.25,18.6,18.41,24.48,30.36,.57,1.16,.75,2.52,.97,3.31Z"/><path class="cls-2" d="M354.97,383.7c-.08,4.56-4.07,8.66-8.52,8.74-4.69,.08-8.75-4.12-8.7-8.99,.06-4.89,4.17-8.87,8.94-8.64,4.56,.22,8.35,4.29,8.27,8.89Z"/></svg>